<?xml version="1.0" encoding="utf-8" ?>
<svg baseProfile="full" height="2125" version="1.1" width="2125" xmlns="http://www.w3.org/2000/svg" xmlns:ev="http://www.w3.org/2001/xml-events" xmlns:xlink="http://www.w3.org/1999/xlink"><defs /><path d="M30.604,1184.441 348.466,206.161 548.188,61.055 1576.812,61.055 1776.534,206.161 2094.396,1184.441 2018.109,1419.228 1185.935,2023.839 939.065,2023.839 106.891,1419.228 Z" fill="#242424" stroke="#242424" stroke-width="40" /><circle cx="230.326" cy="1249.335" fill="#242424" r="210" stroke="#242424" stroke-width="40" /><circle cx="1062.5" cy="1853.945" fill="#242424" r="210" stroke="#242424" stroke-width="40" /><circle cx="1894.674" cy="1249.335" fill="#242424" r="210" stroke="#242424" stroke-width="40" /><circle cx="1576.812" cy="271.055" fill="#242424" r="210" stroke="#242424" stroke-width="40" /><circle cx="548.188" cy="271.055" fill="#242424" r="210" stroke="#242424" stroke-width="40" /><circle cx="230.326" cy="1249.335" fill="none" r="90" stroke="#FFFFFF" stroke-width="40" /><circle cx="230.326" cy="1249.335" fill="#FFFFFF" r="30" stroke="#FFFFFF" stroke-width="0" /><circle cx="1062.5" cy="1853.945" fill="none" r="90" stroke="#FFFFFF" stroke-width="40" /><circle cx="1062.5" cy="1853.945" fill="#FFFFFF" r="30" stroke="#FFFFFF" stroke-width="0" /><circle cx="1894.674" cy="1249.335" fill="none" r="90" stroke="#FFFFFF" stroke-width="40" /><circle cx="1894.674" cy="1249.335" fill="#FFFFFF" r="30" stroke="#FFFFFF" stroke-width="0" /><circle cx="1576.812" cy="271.055" fill="none" r="90" stroke="#FFFFFF" stroke-width="40" /><circle cx="1576.812" cy="271.055" fill="#FFFFFF" r="30" stroke="#FFFFFF" stroke-width="0" /><circle cx="548.188" cy="271.055" fill="none" r="90" stroke="#FFFFFF" stroke-width="40" /><circle cx="548.188" cy="271.055" fill="#FFFFFF" r="30" stroke="#FFFFFF" stroke-width="0" /><path d="M613.577,361.055 1511.423,361.055 1788.873,1214.958 1062.5,1742.699 336.127,1214.958 Z" fill="none" stroke="#FFFFFF" stroke-width="40" /><path d="M1471.469,1111.827 1315.257,631.055 809.743,631.055 653.531,1111.827 1062.5,1408.96 Z" fill="none" stroke="#FFFFFF" stroke-width="28" /><path d="M1062.5,1520.207 547.73,1146.204 744.354,541.055 1380.646,541.055 1577.27,1146.204 Z" fill="none" stroke="#FFFFFF" stroke-width="40" /><path d="M875.132,721.055 1249.868,721.055 1365.668,1077.45 1062.5,1297.714 759.332,1077.45 Z" fill="none" stroke="#FFFFFF" stroke-width="40" /><line stroke="#FFFFFF" stroke-width="28" x1="1604.624" x2="1866.863" y1="356.65" y2="1163.74" /><line stroke="#FFFFFF" stroke-width="28" x1="1821.863" x2="1135.312" y1="1302.235" y2="1801.044" /><line stroke="#FFFFFF" stroke-width="28" x1="989.688" x2="303.137" y1="1801.044" y2="1302.235" /><line stroke="#FFFFFF" stroke-width="28" x1="258.137" x2="520.376" y1="1163.74" y2="356.65" /><line stroke="#FFFFFF" stroke-width="40" x1="1980.27" x2="1662.407" y1="1221.523" y2="243.244" /><line stroke="#FFFFFF" stroke-width="40" x1="1115.401" x2="1947.575" y1="1926.756" y2="1322.146" /><line stroke="#FFFFFF" stroke-width="40" x1="177.425" x2="1009.599" y1="1322.146" y2="1926.756" /><line stroke="#FFFFFF" stroke-width="40" x1="462.593" x2="144.73" y1="243.244" y2="1221.523" /><line stroke="#FFFFFF" stroke-width="40" x1="1576.812" x2="548.188" y1="181.055" y2="181.055" /><line stroke="#FFFFFF" stroke-width="40" x1="1577.27" x2="1365.668" y1="1146.204" y2="1077.45" /><line stroke="#FFFFFF" stroke-width="40" x1="1062.5" x2="1062.5" y1="1297.714" y2="1520.207" /><line stroke="#FFFFFF" stroke-width="40" x1="1249.868" x2="1380.646" y1="721.055" y2="541.055" /><line stroke="#FFFFFF" stroke-width="40" x1="759.332" x2="547.73" y1="1077.45" y2="1146.204" /><line stroke="#FFFFFF" stroke-width="40" x1="875.132" x2="744.354" y1="721.055" y2="541.055" /><line stroke="#FFFFFF" stroke-width="28" x1="638.188" x2="1486.812" y1="271.055" y2="271.055" /></svg>