<?xml version="1.0" encoding="utf-8" ?>
<svg baseProfile="full" height="2000" version="1.1" width="2000" xmlns="http://www.w3.org/2000/svg" xmlns:ev="http://www.w3.org/2001/xml-events" xmlns:xlink="http://www.w3.org/1999/xlink"><defs /><circle cx="125" cy="1000" fill="none" r="90" stroke="#CAD0D9" stroke-width="40" /><circle cx="125" cy="1000" fill="#CAD0D9" r="30" stroke="#CAD0D9" stroke-width="0" /><circle cx="729.61" cy="1832.174" fill="none" r="90" stroke="#CAD0D9" stroke-width="40" /><circle cx="729.61" cy="1832.174" fill="#CAD0D9" r="30" stroke="#CAD0D9" stroke-width="0" /><circle cx="1707.89" cy="1514.312" fill="none" r="90" stroke="#CAD0D9" stroke-width="40" /><circle cx="1707.89" cy="1514.312" fill="#CAD0D9" r="30" stroke="#CAD0D9" stroke-width="0" /><circle cx="1707.89" cy="485.688" fill="none" r="90" stroke="#CAD0D9" stroke-width="40" /><circle cx="1707.89" cy="485.688" fill="#CAD0D9" r="30" stroke="#CAD0D9" stroke-width="0" /><circle cx="729.61" cy="167.826" fill="none" r="90" stroke="#CAD0D9" stroke-width="40" /><circle cx="729.61" cy="167.826" fill="#CAD0D9" r="30" stroke="#CAD0D9" stroke-width="0" /><path d="M763.987,273.627 1617.89,551.077 1617.89,1448.923 763.987,1726.373 236.246,1000 Z" fill="none" stroke="#CAD0D9" stroke-width="40" /><path d="M1347.89,1252.757 1347.89,747.243 867.118,591.031 569.984,1000 867.118,1408.969 Z" fill="none" stroke="#CAD0D9" stroke-width="28" /><path d="M832.741,1514.77 458.738,1000 832.741,485.23 1437.89,681.854 1437.89,1318.146 Z" fill="none" stroke="#CAD0D9" stroke-width="40" /><path d="M901.495,696.832 1257.89,812.632 1257.89,1187.368 901.495,1303.168 681.231,1000 Z" fill="none" stroke="#CAD0D9" stroke-width="40" /><line stroke="#CAD0D9" stroke-width="28" x1="1707.89" x2="1707.89" y1="575.688" y2="1424.312" /><line stroke="#CAD0D9" stroke-width="28" x1="1622.295" x2="815.205" y1="1542.124" y2="1804.363" /><line stroke="#CAD0D9" stroke-width="28" x1="676.709" x2="177.901" y1="1759.363" y2="1072.812" /><line stroke="#CAD0D9" stroke-width="28" x1="177.901" x2="676.709" y1="927.188" y2="240.637" /><line stroke="#CAD0D9" stroke-width="40" x1="1797.89" x2="1797.89" y1="1514.312" y2="485.688" /><line stroke="#CAD0D9" stroke-width="40" x1="757.422" x2="1735.701" y1="1917.77" y2="1599.907" /><line stroke="#CAD0D9" stroke-width="40" x1="52.188" x2="656.799" y1="1052.901" y2="1885.075" /><line stroke="#CAD0D9" stroke-width="40" x1="656.799" x2="52.188" y1="114.925" y2="947.099" /><line stroke="#CAD0D9" stroke-width="40" x1="1735.701" x2="757.422" y1="400.093" y2="82.23" /><line stroke="#CAD0D9" stroke-width="40" x1="1437.89" x2="1257.89" y1="1318.146" y2="1187.368" /><line stroke="#CAD0D9" stroke-width="40" x1="901.495" x2="832.741" y1="1303.168" y2="1514.77" /><line stroke="#CAD0D9" stroke-width="40" x1="1257.89" x2="1437.89" y1="812.632" y2="681.854" /><line stroke="#CAD0D9" stroke-width="40" x1="681.231" x2="458.738" y1="1000" y2="1000" /><line stroke="#CAD0D9" stroke-width="40" x1="901.495" x2="832.741" y1="696.832" y2="485.23" /><line stroke="#CAD0D9" stroke-width="28" x1="815.205" x2="1622.295" y1="195.637" y2="457.876" /></svg>