<?xml version="1.0" encoding="UTF-8" standalone="no"?>
<!-- Created with Inkscape (http://www.inkscape.org/) -->

<svg
   width="400"
   height="400"
   viewBox="0 0 105.83333 105.83333"
   version="1.1"
   id="svg1"
   sodipodi:docname="section.svg"
   inkscape:version="1.3.2 (091e20e, 2023-11-25, custom)"
   inkscape:export-filename="section.png"
   inkscape:export-xdpi="96"
   inkscape:export-ydpi="96"
   xmlns:inkscape="http://www.inkscape.org/namespaces/inkscape"
   xmlns:sodipodi="http://sodipodi.sourceforge.net/DTD/sodipodi-0.dtd"
   xmlns="http://www.w3.org/2000/svg"
   xmlns:svg="http://www.w3.org/2000/svg">
  <sodipodi:namedview
     id="namedview1"
     pagecolor="#ffffff"
     bordercolor="#999999"
     borderopacity="1"
     inkscape:showpageshadow="2"
     inkscape:pageopacity="0"
     inkscape:pagecheckerboard="0"
     inkscape:deskcolor="#d1d1d1"
     inkscape:document-units="px"
     inkscape:zoom="1"
     inkscape:cx="61"
     inkscape:cy="204.5"
     inkscape:window-width="1920"
     inkscape:window-height="1017"
     inkscape:window-x="1358"
     inkscape:window-y="-8"
     inkscape:window-maximized="1"
     inkscape:current-layer="layer1" />
  <defs
     id="defs1">
    <inkscape:path-effect
       effect="fillet_chamfer"
       id="path-effect3"
       is_visible="true"
       lpeversion="1"
       nodesatellites_param="F,0,0,1,0,8,0,1 @ F,0,0,1,0,8,0,1 @ F,0,0,1,0,8,0,1 @ F,0,0,1,0,4.1635418,0,1 @ F,0,1,1,0,4.1635418,0,1 @ F,0,0,1,0,8,0,1 @ F,0,0,1,0,8,0,1 @ F,0,0,1,0,8,0,1 @ F,0,0,1,0,8,0,1 @ F,0,1,1,0,4.1635418,0,1 @ F,0,1,1,0,4.1635418,0,1 @ F,0,0,1,0,8,0,1"
       radius="8"
       unit="px"
       method="auto"
       mode="F"
       chamfer_steps="1"
       flexible="false"
       use_knot_distance="true"
       apply_no_radius="true"
       apply_with_radius="true"
       only_selected="false"
       hide_knots="false" />
    <inkscape:path-effect
       effect="fillet_chamfer"
       id="path-effect2"
       is_visible="true"
       lpeversion="1"
       nodesatellites_param="F,0,0,1,0,0,0,1 @ F,0,0,1,0,0,0,1 @ F,0,0,1,0,0,0,1 @ F,0,0,1,0,0,0,1 @ F,0,0,1,0,0,0,1 @ F,0,0,1,0,0,0,1 @ F,0,0,1,0,0,0,1 @ F,0,0,1,0,0,0,1 @ F,0,0,1,0,0,0,1 @ F,0,0,1,0,0,0,1 @ F,0,0,1,0,0,0,1 @ F,0,0,1,0,0,0,1"
       radius="0"
       unit="px"
       method="auto"
       mode="F"
       chamfer_steps="1"
       flexible="false"
       use_knot_distance="true"
       apply_no_radius="true"
       apply_with_radius="true"
       only_selected="false"
       hide_knots="false" />
  </defs>
  <g
     inkscape:label="Layer 1"
     inkscape:groupmode="layer"
     id="layer1">
    <path
       id="rect2"
       style="opacity:1;fill:#ffffff;fill-opacity:1;stroke:#000000;stroke-width:3.96875;stroke-linejoin:miter;stroke-dasharray:none;stroke-opacity:1"
       d="m 31.812499,21.166666 h 42.208332 a 8,8 45 0 1 8,8 v 2.520832 a 8,8 135 0 1 -8,8 h -9.003124 a 4.1635418,4.1635418 135 0 0 -4.163542,4.163542 v 18.131249 a 4.1635418,4.1635418 45 0 0 4.163542,4.163542 h 9.003124 a 8,8 45 0 1 8,8 l 0,2.520833 a 8,8 135 0 1 -8,8 H 31.812499 a 8,8 45 0 1 -8,-8 l 0,-2.520833 a 8,8 135 0 1 8,-8 h 9.003124 a 4.1635418,4.1635418 135 0 0 4.163542,-4.163542 V 43.851041 a 4.163542,4.163542 45.000001 0 0 -4.163542,-4.163542 l -9.003124,-1e-6 a 8.0000004,8.0000004 45.000001 0 1 -8,-8 v -2.520832 a 8,8 135 0 1 8,-8 z"
       sodipodi:nodetypes="ccccccccccccc"
       inkscape:path-effect="#path-effect3"
       inkscape:original-d="M 23.812499,21.166666 H 82.020831 V 39.687498 H 60.854165 V 66.145831 H 82.020831 V 84.666664 H 23.812499 V 66.145831 H 44.979165 V 39.687499 l -21.166666,-1e-6 z" />
  </g>
</svg>
