<?xml version="1.0" encoding="utf-8" ?>
<svg baseProfile="full" height="2000" version="1.1" width="2000" xmlns="http://www.w3.org/2000/svg" xmlns:ev="http://www.w3.org/2001/xml-events" xmlns:xlink="http://www.w3.org/1999/xlink"><defs /><rect fill="#242424" height="100%" width="100%" x="0" y="0" /><circle cx="167.826" cy="1270.39" fill="none" r="90" stroke="#FFFFFF" stroke-width="40" /><circle cx="167.826" cy="1270.39" fill="#FFFFFF" r="30" stroke="#FFFFFF" stroke-width="0" /><circle cx="1000" cy="1875" fill="none" r="90" stroke="#FFFFFF" stroke-width="40" /><circle cx="1000" cy="1875" fill="#FFFFFF" r="30" stroke="#FFFFFF" stroke-width="0" /><circle cx="1832.174" cy="1270.39" fill="none" r="90" stroke="#FFFFFF" stroke-width="40" /><circle cx="1832.174" cy="1270.39" fill="#FFFFFF" r="30" stroke="#FFFFFF" stroke-width="0" /><circle cx="1514.312" cy="292.11" fill="none" r="90" stroke="#FFFFFF" stroke-width="40" /><circle cx="1514.312" cy="292.11" fill="#FFFFFF" r="30" stroke="#FFFFFF" stroke-width="0" /><circle cx="485.688" cy="292.11" fill="none" r="90" stroke="#FFFFFF" stroke-width="40" /><circle cx="485.688" cy="292.11" fill="#FFFFFF" r="30" stroke="#FFFFFF" stroke-width="0" /><path d="M551.077,382.11 1448.923,382.11 1726.373,1236.013 1000,1763.754 273.627,1236.013 Z" fill="none" stroke="#FFFFFF" stroke-width="40" /><path d="M1408.969,1132.882 1252.757,652.11 747.243,652.11 591.031,1132.882 1000,1430.016 Z" fill="none" stroke="#FFFFFF" stroke-width="28" /><path d="M1000,1541.262 485.23,1167.259 681.854,562.11 1318.146,562.11 1514.77,1167.259 Z" fill="none" stroke="#FFFFFF" stroke-width="40" /><path d="M812.632,742.11 1187.368,742.11 1303.168,1098.505 1000,1318.769 696.832,1098.505 Z" fill="none" stroke="#FFFFFF" stroke-width="40" /><line stroke="#FFFFFF" stroke-width="28" x1="1542.124" x2="1804.363" y1="377.705" y2="1184.795" /><line stroke="#FFFFFF" stroke-width="28" x1="1759.363" x2="1072.812" y1="1323.291" y2="1822.099" /><line stroke="#FFFFFF" stroke-width="28" x1="927.188" x2="240.637" y1="1822.099" y2="1323.291" /><line stroke="#FFFFFF" stroke-width="28" x1="195.637" x2="457.876" y1="1184.795" y2="377.705" /><line stroke="#FFFFFF" stroke-width="40" x1="1917.77" x2="1599.907" y1="1242.578" y2="264.299" /><line stroke="#FFFFFF" stroke-width="40" x1="1052.901" x2="1885.075" y1="1947.812" y2="1343.201" /><line stroke="#FFFFFF" stroke-width="40" x1="114.925" x2="947.099" y1="1343.201" y2="1947.812" /><line stroke="#FFFFFF" stroke-width="40" x1="400.093" x2="82.23" y1="264.299" y2="1242.578" /><line stroke="#FFFFFF" stroke-width="40" x1="1514.312" x2="485.688" y1="202.11" y2="202.11" /><line stroke="#FFFFFF" stroke-width="40" x1="1514.77" x2="1303.168" y1="1167.259" y2="1098.505" /><line stroke="#FFFFFF" stroke-width="40" x1="1000" x2="1000" y1="1318.769" y2="1541.262" /><line stroke="#FFFFFF" stroke-width="40" x1="1187.368" x2="1318.146" y1="742.11" y2="562.11" /><line stroke="#FFFFFF" stroke-width="40" x1="696.832" x2="485.23" y1="1098.505" y2="1167.259" /><line stroke="#FFFFFF" stroke-width="40" x1="812.632" x2="681.854" y1="742.11" y2="562.11" /><line stroke="#FFFFFF" stroke-width="28" x1="575.688" x2="1424.312" y1="292.11" y2="292.11" /></svg>