<?xml version="1.0" encoding="utf-8" ?>
<svg baseProfile="full" height="2000" version="1.1" width="2000" xmlns="http://www.w3.org/2000/svg" xmlns:ev="http://www.w3.org/2001/xml-events" xmlns:xlink="http://www.w3.org/1999/xlink"><defs /><rect fill="#242424" height="100%" width="100%" x="0" y="0" /><circle cx="1832.174" cy="729.61" fill="none" r="90" stroke="#FFFFFF" stroke-width="40" /><circle cx="1832.174" cy="729.61" fill="#FFFFFF" r="30" stroke="#FFFFFF" stroke-width="0" /><circle cx="1000" cy="125" fill="none" r="90" stroke="#FFFFFF" stroke-width="40" /><circle cx="1000" cy="125" fill="#FFFFFF" r="30" stroke="#FFFFFF" stroke-width="0" /><circle cx="167.826" cy="729.61" fill="none" r="90" stroke="#FFFFFF" stroke-width="40" /><circle cx="167.826" cy="729.61" fill="#FFFFFF" r="30" stroke="#FFFFFF" stroke-width="0" /><circle cx="485.688" cy="1707.89" fill="none" r="90" stroke="#FFFFFF" stroke-width="40" /><circle cx="485.688" cy="1707.89" fill="#FFFFFF" r="30" stroke="#FFFFFF" stroke-width="0" /><circle cx="1514.312" cy="1707.89" fill="none" r="90" stroke="#FFFFFF" stroke-width="40" /><circle cx="1514.312" cy="1707.89" fill="#FFFFFF" r="30" stroke="#FFFFFF" stroke-width="0" /><path d="M1448.923,1617.89 551.077,1617.89 273.627,763.987 1000,236.246 1726.373,763.987 Z" fill="none" stroke="#FFFFFF" stroke-width="40" /><path d="M591.031,867.118 747.243,1347.89 1252.757,1347.89 1408.969,867.118 1000,569.984 Z" fill="none" stroke="#FFFFFF" stroke-width="28" /><path d="M1000,458.738 1514.77,832.741 1318.146,1437.89 681.854,1437.89 485.23,832.741 Z" fill="none" stroke="#FFFFFF" stroke-width="40" /><path d="M1187.368,1257.89 812.632,1257.89 696.832,901.495 1000,681.231 1303.168,901.495 Z" fill="none" stroke="#FFFFFF" stroke-width="40" /><line stroke="#FFFFFF" stroke-width="28" x1="457.876" x2="195.637" y1="1622.295" y2="815.205" /><line stroke="#FFFFFF" stroke-width="28" x1="240.637" x2="927.188" y1="676.709" y2="177.901" /><line stroke="#FFFFFF" stroke-width="28" x1="1072.812" x2="1759.363" y1="177.901" y2="676.709" /><line stroke="#FFFFFF" stroke-width="28" x1="1804.363" x2="1542.124" y1="815.205" y2="1622.295" /><line stroke="#FFFFFF" stroke-width="40" x1="82.23" x2="400.093" y1="757.422" y2="1735.701" /><line stroke="#FFFFFF" stroke-width="40" x1="947.099" x2="114.925" y1="52.188" y2="656.799" /><line stroke="#FFFFFF" stroke-width="40" x1="1885.075" x2="1052.901" y1="656.799" y2="52.188" /><line stroke="#FFFFFF" stroke-width="40" x1="1599.907" x2="1917.77" y1="1735.701" y2="757.422" /><line stroke="#FFFFFF" stroke-width="40" x1="485.688" x2="1514.312" y1="1797.89" y2="1797.89" /><line stroke="#FFFFFF" stroke-width="40" x1="485.23" x2="696.832" y1="832.741" y2="901.495" /><line stroke="#FFFFFF" stroke-width="40" x1="1000" x2="1000" y1="681.231" y2="458.738" /><line stroke="#FFFFFF" stroke-width="40" x1="812.632" x2="681.854" y1="1257.89" y2="1437.89" /><line stroke="#FFFFFF" stroke-width="40" x1="1303.168" x2="1514.77" y1="901.495" y2="832.741" /><line stroke="#FFFFFF" stroke-width="40" x1="1187.368" x2="1318.146" y1="1257.89" y2="1437.89" /><line stroke="#FFFFFF" stroke-width="28" x1="1424.312" x2="575.688" y1="1707.89" y2="1707.89" /></svg>